<svg width="4127" height="620" viewBox="0 0 4127 620" fill="none" xmlns="http://www.w3.org/2000/svg">
<path d="M3901.43 8.02344H3767.04V138.405H3879.37C3879.37 138.405 3939.54 138.405 3939.54 192.564C3939.54 246.723 3879.37 248.729 3879.37 248.729H3767.04V363.064H3901.43C3901.43 363.064 3965.62 365.07 3965.62 425.246C3965.62 485.422 3901.43 485.422 3901.43 485.422H3767.04V607.781H3901.43C4019.78 607.781 4126.09 591.734 4126.09 453.328C4126.09 314.923 4019.78 294.864 4019.78 294.864C4019.78 294.864 4083.97 248.729 4083.97 156.458C4083.97 64.188 4019.78 8.02344 3901.43 8.02344Z" fill="#FCFDE9"/>
<rect x="3638.66" y="8.02344" width="148.435" height="599.757" rx="5" fill="#FCFDE9"/>
<path d="M1438.18 16.0469H1923.67C1929.19 16.0469 1933.67 20.524 1933.67 26.0469V140.441C1933.67 145.963 1929.19 150.441 1923.67 150.441H1769.15C1763.63 150.441 1759.15 154.918 1759.15 160.441V609.816C1759.15 615.339 1754.68 619.816 1749.15 619.816H1612.7C1607.17 619.816 1602.7 615.339 1602.7 609.816V160.441C1602.7 154.918 1598.22 150.441 1592.7 150.441H1438.18C1432.66 150.441 1428.18 145.963 1428.18 140.441V26.0469C1428.18 20.524 1432.66 16.0469 1438.18 16.0469Z" fill="#FCFDE9"/>
<path d="M2563.61 480.953C2570.07 486.074 2571.22 495.481 2565.83 501.719C2527.87 545.632 2478.06 577.689 2422.3 593.892C2361.78 611.48 2297.3 609.502 2237.96 588.237C2178.61 566.972 2127.39 527.494 2091.52 475.366C2055.65 423.239 2036.93 361.094 2038.02 297.69C2039.1 234.287 2059.92 172.824 2097.54 121.966C2135.17 71.1092 2187.71 33.4229 2247.74 14.2206C2307.78 -4.98163 2372.28 -4.73133 2432.17 14.9363C2487.35 33.0561 2536.03 66.8152 2572.47 112.014C2577.65 118.434 2576.18 127.797 2569.54 132.693L2467.79 207.761C2461.1 212.701 2451.71 211.185 2446.14 205.001C2429.28 186.268 2407.8 172.205 2383.76 164.311C2354.94 154.846 2323.9 154.725 2295.01 163.967C2266.11 173.208 2240.83 191.344 2222.72 215.819C2204.62 240.294 2194.59 269.873 2194.07 300.386C2193.55 330.899 2202.56 360.807 2219.82 385.893C2237.09 410.979 2261.74 429.978 2290.3 440.212C2318.86 450.446 2349.89 451.398 2379.01 442.934C2403.3 435.875 2425.25 422.563 2442.74 404.427C2448.52 398.436 2457.95 397.243 2464.47 402.411L2563.61 480.953Z" fill="#FCFDE9"/>
<path d="M525.64 488.977C532.104 494.098 533.249 503.504 527.856 509.743C489.897 553.656 440.089 585.713 384.33 601.916C323.809 619.503 259.33 617.525 199.984 596.26C140.639 574.996 89.4202 535.517 53.549 483.39C17.6777 431.263 -1.03662 369.117 0.0442999 305.713C1.12522 242.31 21.9469 180.847 59.5739 129.99C97.2008 79.1326 149.735 41.4464 209.77 22.2441C269.806 3.0418 334.314 3.29211 394.2 22.9597C449.374 41.0795 498.061 74.8386 534.501 120.037C539.677 126.458 538.21 135.821 531.573 140.717L429.821 215.785C423.125 220.725 413.741 219.208 408.173 213.024C391.309 194.292 369.829 180.229 345.791 172.334C316.971 162.869 285.926 162.749 257.034 171.99C228.142 181.231 202.86 199.368 184.752 223.843C166.644 248.318 156.624 277.897 156.104 308.41C155.583 338.923 164.59 368.83 181.853 393.916C199.116 419.003 223.765 438.002 252.325 448.235C280.885 458.469 311.915 459.421 341.041 450.957C365.333 443.898 387.278 430.587 404.77 412.45C410.547 406.46 419.979 405.266 426.502 410.434L525.64 488.977Z" fill="#FCFDE9"/>
<path fill-rule="evenodd" clip-rule="evenodd" d="M1047.9 8.02344H897.82C894.655 8.02344 891.789 9.88844 890.506 12.7811L630.818 598.544C628.473 603.834 632.345 609.787 638.131 609.787H800.704C804.095 609.787 807.118 607.648 808.247 604.451L848.87 489.435H1097.41L1105.24 511.499L1149.21 605.186C1150.53 607.994 1153.35 609.787 1156.46 609.787H1309.54C1315.33 609.787 1319.21 603.816 1316.84 598.524L1055.2 12.7608C1053.91 9.87903 1051.05 8.02344 1047.9 8.02344ZM1057.55 377.106L980.407 159.702C977.886 152.597 967.835 152.605 965.325 159.713L888.543 377.106H1057.55Z" fill="#FCFDE9"/>
<path d="M2730 611.792V8.02344H2890.47V242.711H3071V8.02344H3219.43V611.792H3071V377.105H2890.47V611.792H2730Z" fill="#FCFDE9"/>
<path d="M2738.02 604.787V13.0234C2738.02 10.262 2740.26 8.02344 2743.02 8.02344H2883.46C2886.22 8.02344 2888.46 10.262 2888.46 13.0234V237.711C2888.46 240.472 2890.7 242.711 2893.46 242.711H3066C3068.76 242.711 3071 240.472 3071 237.711V13.0234C3071 10.262 3073.24 8.02344 3076 8.02344H3216.44C3219.2 8.02344 3221.44 10.262 3221.44 13.0234V604.787C3221.44 607.548 3219.2 609.787 3216.44 609.787H3076C3073.24 609.787 3071 607.548 3071 604.787V380.099C3071 377.337 3068.76 375.099 3066 375.099H2893.46C2890.7 375.099 2888.46 377.337 2888.46 380.099V604.787C2888.46 607.548 2886.22 609.787 2883.46 609.787H2743.02C2740.26 609.787 2738.02 607.548 2738.02 604.787Z" fill="#FCFDE9"/>
</svg>
