<svg width="926" height="992" viewBox="0 0 926 992" fill="none" xmlns="http://www.w3.org/2000/svg">
<path d="M201 672C251.53 675.725 326.077 745.73 306.5 799.5C254.643 766.794 213.835 705.467 201 672Z" fill="#FCFDE9"/>
<path fill-rule="evenodd" clip-rule="evenodd" d="M633.714 271.683C626.685 306.048 601.661 323.943 591.039 330.132C588.503 331.61 587.511 334.842 589.362 337.118C595.355 344.489 610.534 358.919 640.214 363.683C669.368 368.362 687.381 360.086 695.186 355.082C697.72 353.458 697.681 349.99 695.532 347.882C686.042 338.572 664.085 312.797 669.214 277.683C674.332 242.646 703.626 225.277 715.854 219.474C718.628 218.157 719.816 214.793 717.945 212.358C711.887 204.473 696.938 189.155 669.214 183.683C641.243 178.162 620.315 187.542 611.217 192.877C608.519 194.459 608.353 198.117 610.494 200.398C619.856 210.369 640.771 237.184 633.714 271.683ZM561.714 261.183C564.286 242.81 572.799 228.218 577.132 221.773C578.544 219.672 581.31 219.211 583.282 220.797C590.658 226.73 606.588 242.556 602.714 266.183C598.829 289.882 580.454 300.298 572.452 303.765C570.304 304.696 567.93 303.722 567.019 301.565C564.204 294.908 559.123 279.689 561.714 261.183ZM739.338 248.851C742.136 254.972 747.327 269.651 744.714 290.183C742.122 310.547 733.224 324.057 728.781 329.697C727.348 331.515 724.831 331.809 723.014 330.373C716.097 324.908 700.434 309.766 701.214 285.183C702.023 259.718 725.378 249.611 734.297 246.673C736.324 246.005 738.451 246.91 739.338 248.851Z" fill="#FCFDE9"/>
<path fill-rule="evenodd" clip-rule="evenodd" d="M432.891 304.232C445.381 261.22 394.382 247.221 366.891 272.732C344.064 294.608 307.918 339.009 245.864 415.238L241.391 420.733C177.063 479.571 159.671 598.325 188.391 632.733C293.883 646.212 368.663 735.708 341.391 823.733C421.493 849.565 509.839 783.28 598.891 701.733L701.891 607.733C717.557 584.337 694.282 552.332 672.891 575.733L576.891 672.733C551.391 678.233 542.739 656.069 551.391 641.733C559.535 633.601 567.387 625.771 574.908 618.272L574.909 618.271L574.909 618.271L574.909 618.271C625.378 567.948 660.921 532.508 669.391 520.733C676.799 497.305 660.498 477.927 637.891 486.233L537.391 588.233C514.738 601.266 499.969 576.608 508.391 558.233C574.534 493.33 598.661 468.624 609.891 453.233C621.791 413.919 585.572 393.689 555.391 417.233L469.891 509.233C450.241 521.246 434.017 510.937 437.891 486.233C442.293 477.713 456.379 462.952 472.985 445.55L472.986 445.549C489.096 428.666 507.578 409.298 521.891 390.733C541.057 344.557 493.073 319.192 459.391 349.233C447.894 362.154 436.919 374.317 426.6 385.752L426.595 385.758L426.593 385.76L426.593 385.76C389.804 426.531 361.36 458.052 347.391 481.733C326.127 511.246 303.819 494.023 309.391 462.233C315.331 448.536 348.042 409.397 378.499 372.957L378.5 372.957L378.5 372.956L378.5 372.956C403.506 343.037 426.992 314.938 432.891 304.232ZM471.061 728.427L463.185 712.436C460.85 707.695 462.606 701.956 467.194 699.335L491.094 685.678C492.998 684.589 495.217 684.113 497.363 684.569C511.394 687.551 513.843 696.412 513.307 712.772C513.191 716.322 511.083 719.487 507.914 721.092L484.552 732.929C479.586 735.445 473.521 733.421 471.061 728.427ZM421.094 723.718L442.629 711.889C447.522 709.201 453.669 711.041 456.281 715.975L464.993 732.43C467.521 737.205 465.798 743.125 461.103 745.799L436.347 759.896C434.516 760.939 432.375 761.458 430.341 760.907C420.317 758.191 416.449 748.145 416.037 732.278C415.945 728.705 417.96 725.44 421.094 723.718ZM395 714C406.598 714 416 704.598 416 693C416 681.402 406.598 672 395 672C383.402 672 374 681.402 374 693C374 704.598 383.402 714 395 714ZM350.071 554.914C353.44 531.069 319.015 522.979 314.444 540.222C309.649 553.806 306.768 562.482 304.394 574.544C303.465 579.267 306.228 583.898 310.76 585.521L326.928 591.313C332.167 593.19 337.93 590.428 339.75 585.17L349.681 556.481C349.856 555.976 349.997 555.443 350.071 554.914ZM324.872 600.696L307.952 594.724C303.118 593.018 297.739 595.23 295.807 599.978C292.116 609.045 289.454 618.03 285.444 631.722C281.329 650.109 306.822 661.522 320.684 646.685C321.554 645.753 322.132 644.591 322.496 643.369C326.062 631.399 328.424 623.26 331.207 612.535C332.501 607.545 329.732 602.412 324.872 600.696ZM374.944 645.722C386.542 645.722 395.944 636.32 395.944 624.722C395.944 613.124 386.542 603.722 374.944 603.722C363.346 603.722 353.944 613.124 353.944 624.722C353.944 636.32 363.346 645.722 374.944 645.722Z" fill="#FCFDE9"/>
<path fill-rule="evenodd" clip-rule="evenodd" d="M779.442 344.285C777.483 333.249 773.844 303.06 780.433 253.558C788.873 190.15 702.268 121.696 615.991 149.067C615.01 149.378 613.926 149.392 612.939 149.096C385.251 80.8957 211.281 193.568 144.595 373.558C107.452 499.57 113.545 626.904 183.794 748.558C293.023 906.742 441.04 905.668 539.349 826.593C541.853 824.579 545.674 825.46 547.229 828.271C619.613 959.17 729.654 827.503 778.906 712.058C791.812 671.61 787.011 644.304 782.723 631.143C781.454 627.248 784.644 622.601 788.708 623.118C848.939 630.771 924.873 661.031 925.52 712.058C910.72 846.798 689.423 976.323 572.729 987.058C337.892 1010.4 183.794 946.595 63.6514 769.558C-20.1052 611.485 -21.9052 421.515 62.4208 258.861C103.532 173.405 160.409 113.141 249.975 65.4836C556.614 -108.569 901.139 102.822 924.928 253.029C924.986 253.39 924.999 253.75 924.972 254.115C920.987 307.805 862.297 328.853 785.193 347.891C782.554 348.542 779.917 346.961 779.442 344.285Z" fill="#FCFDE9"/>
</svg>
